<?xml version="1.0" encoding="UTF-8" standalone="no"?>
<!-- Created with Inkscape (http://www.inkscape.org/) -->

<svg
   xmlns:dc="http://purl.org/dc/elements/1.1/"
   xmlns:cc="http://creativecommons.org/ns#"
   xmlns:rdf="http://www.w3.org/1999/02/22-rdf-syntax-ns#"
   xmlns:svg="http://www.w3.org/2000/svg"
   xmlns="http://www.w3.org/2000/svg"
   xmlns:sodipodi="http://sodipodi.sourceforge.net/DTD/sodipodi-0.dtd"
   xmlns:inkscape="http://www.inkscape.org/namespaces/inkscape"
   width="190mm"
   height="190mm"
   viewBox="0 0 190 190"
   version="1.1"
   id="svg8"
   inkscape:version="0.92.1 r15371"
   sodipodi:docname="logo.svg">
  <defs
     id="defs2">
    <style
       id="style10"
       type="text/css">
   <![CDATA[
    .fil0 {fill:#291C6F}
   ]]>
  </style>
  </defs>
  <sodipodi:namedview
     id="base"
     pagecolor="#ffffff"
     bordercolor="#666666"
     borderopacity="1.0"
     inkscape:pageopacity="0.0"
     inkscape:pageshadow="2"
     inkscape:zoom="0.35"
     inkscape:cx="400"
     inkscape:cy="560"
     inkscape:document-units="mm"
     inkscape:current-layer="layer1"
     showgrid="false"
     inkscape:window-width="1920"
     inkscape:window-height="1017"
     inkscape:window-x="-8"
     inkscape:window-y="-8"
     inkscape:window-maximized="1" />
  <metadata
     id="metadata5">
    <rdf:RDF>
      <cc:Work
         rdf:about="">
        <dc:format>image/svg+xml</dc:format>
        <dc:type
           rdf:resource="http://purl.org/dc/dcmitype/StillImage" />
        <dc:title></dc:title>
      </cc:Work>
    </rdf:RDF>
  </metadata>
  <g
     inkscape:label="Layer 1"
     inkscape:groupmode="layer"
     id="layer1"
     transform="translate(0,-107)">
    <g
       style="clip-rule:evenodd;fill-rule:evenodd;image-rendering:optimizeQuality;shape-rendering:geometricPrecision;text-rendering:geometricPrecision"
       id="g28"
       transform="translate(-11.259821,54.005918)">
      <g
         id="Слой_x0020_1">
  <metadata
   id="CorelCorpID_0Corel-Layer" />

  <path
   id="path15"
   d="m 44.9603,54.6549 c 8.7537,35.781 39.788,60.2725 47.2984,83.4774 8.8332,23.8648 4.1095,37.2015 0.7815,55.2448 0.9408,-0.8812 8.6269,-14.1848 27.181,-23.233 24.8053,-13.1793 56.3384,-8.0721 76.9382,-25.291 -2.4803,2.9978 -19.1606,40.4956 -27.6352,42.1192 0.3269,7.8521 -5.0763,9.071 -8.0394,9.8529 0.1363,7.4448 -5.592,8.4905 -8.817,8.2796 0.1772,2.3164 -0.5622,8.6413 -8.268,8.2086 -1.7195,4.0001 -5.2958,5.3312 -7.6944,5.9483 -8.3997,2.1609 -25.5541,-6.5714 -32.9104,-11.4984 4.2187,2.9732 12.6722,9.5447 15.3081,18.184 1.1443,3.7507 2.7209,14.5543 -1.6268,15.4847 -2.0679,1.2794 -6.9766,1.4472 -9.51,-1.0231 -4.3876,2.266 -7.5207,0.3421 -10.6056,-1.7702 -2.2741,0.1694 -4.4768,0.1439 -6.1935,-1.6119 -5.1689,-5.2867 -4.4799,-20.5426 -2.1608,-33.7966 -16.8768,11.9831 -39.1756,22.6924 -59.9036,19.5857 -5.227,-0.9864 -6.9722,-3.1784 -6.013,-9.5414 -4.6005,-2.7016 -6.1909,-7.9855 -3.3153,-11.8306 -2.6961,-1.3146 -8.9765,-8.2892 -6.279,-13.7169 0.6252,-1.2579 2.0313,-3.3432 5.8623,-4.1175 16.0791,-5.757 39.037,4.9682 47.184,7.4429 0,0 -10.5115,-4.3461 -24.7828,-12.7768 -8.4942,-5.0179 -23.6549,-16.2164 -20.6278,-29.1189 -2.2163,-2.6404 -5.1482,-11.6263 0.5359,-16.5034 -0.8404,-1.4786 -4.8532,-10.066 2.3144,-15.5084 -2.6767,-8.2782 1.3855,-12.5035 3.6313,-13.7127 C 26.1424,89.1753 43.7096,70.1691 44.9603,54.6549 Z m 55.1678,149.202 c 5.6937,2.5963 9.1698,3.4139 13.7568,4.0198 1.3274,0.1753 5.0473,0.3235 7.0794,-0.2397 2.0809,-0.9756 1.3973,-1.8381 0.1652,-3.1759 2.6635,1.1033 9.7874,-0.7887 6.3115,-4.2914 2.3868,0.886 4.9147,0.7734 4.0844,3.3369 -1.5486,2.2107 -4.2679,2.4675 -6.669,1.752 1.569,1.5952 0.8497,2.6888 -0.1678,3.2785 -3.1554,1.6823 -7.7831,1.349 -10.1518,0.7646 -5.1387,-1.3415 -9.3015,-2.3171 -14.4087,-5.4448 z M 77.0064,193.2115 c -6.5671,-3.737 -13.3086,-7.6514 -17.7039,-11.4152 -3.1883,-2.7302 -5.1818,-5.2958 -4.7879,-8.0703 0.2503,-1.5219 2.1194,-1.6938 4.3001,-1.4338 -1.4027,-0.8263 -4.2032,-4.2083 -3.436,-6.999 0.7345,-1.8684 1.5177,-2.4027 4.1874,-2.2425 -2.5549,-1.7096 -5.343,-3.3347 -7.265,-0.7095 -1.1953,2.5809 0.2851,5.1363 2.7286,6.9731 -2.3943,-0.4832 -4.2124,0.3147 -4.524,2.0603 -0.7341,3.9486 2.4265,7.8543 7.8031,11.5184 5.1405,3.7752 12.025,7.5313 18.6976,10.3185 z m 31.5097,21.4784 c 1.9602,3.7374 4.7043,6.8791 5.5157,12.2279 0.2459,1.6206 0.5062,4.5732 -0.8897,6.7837 -2.0728,2.0542 -4.0654,1.0736 -5.9723,0.0481 -1.1244,2.2291 -5.2062,2.0801 -6.4008,0.4092 1.1307,2.4907 2.5455,3.4533 5.241,3.4345 1.2267,-0.1877 2.6465,-1.3438 2.6312,-2.1829 1.7385,2.3562 3.797,2.7956 5.7307,1.4297 2.5493,-2.7846 1.5588,-7.2165 1.2407,-8.8431 -2.0713,-7.0847 -3.7112,-8.9138 -7.0965,-13.3071 z M 53.7886,189.3246 c -5.0221,-1.6383 -15.18,-2.1114 -21.699,-0.8238 -1.9403,0.3832 -7.2544,2.6224 -7.9628,5.563 -0.7082,2.9405 1.778,4.8101 3.5483,5.8133 -3.4258,3.2693 -1.4902,9.0811 1.283,9.5241 -6.5144,-0.9951 -6.5268,-4.4462 -6.5982,-6.2347 -0.0714,-1.7885 1.2366,-4.264 2.2131,-4.542 -3.3816,-1.3594 -6.4257,-4.2194 -4.5127,-7.7132 1.412,-2.7423 5.6634,-3.6592 8.0162,-4.2043 2.3528,-0.5451 16.1849,-1.7157 25.7121,2.6176 z"
   class="fil0"
   inkscape:connector-curvature="0"
   style="fill:#291c6f" />

 </g>
    </g>
  </g>
</svg>
